<svg width="960" height="960" viewBox="0 0 960 960" fill="none" xmlns="http://www.w3.org/2000/svg">
<g clip-path="url(#clip0_115_30)">
<path d="M647.234 43.9325C649.476 44.6315 651.718 45.3304 654.028 46.0505C692.457 58.7834 730.971 78.6571 763.455 102.834C769.001 107.476 769.001 107.476 775.149 106.935C775.607 108.055 776.064 109.175 776.536 110.329C779.463 115.437 782.614 117.848 787.32 121.374C799.141 130.574 810.12 140.54 820.969 150.847C822.095 151.908 823.221 152.969 824.381 154.062C843.206 171.91 859.339 190.855 874.426 211.94C875.259 213.08 876.092 214.219 876.95 215.393C925.837 282.635 954.427 369.454 956.521 452.497C956.56 453.745 956.599 454.993 956.639 456.278C958.226 512.184 949.572 567.554 931.702 620.505C931.08 622.395 931.08 622.395 930.446 624.324C918.14 661.317 900.212 697.16 878.245 729.328C877.349 730.655 876.454 731.983 875.531 733.351C862.851 752.068 849.333 769.696 834.334 786.603C833.44 787.624 832.547 788.646 831.627 789.697C820.164 802.797 820.164 802.797 815.242 807.604C813.982 807.604 812.722 807.604 811.423 807.604C810.793 809.495 810.163 811.385 809.514 813.332C804.884 818.258 799.439 822.387 794.241 826.696C793.188 827.589 792.135 828.482 791.051 829.402C739.907 872.757 680.363 903.466 616.687 924.064C616.687 925.324 616.687 926.585 616.687 927.883C614.972 927.772 613.256 927.661 611.489 927.547C600.56 927.555 590.136 930.702 579.577 933.252C562.265 937.265 545.079 940.654 527.433 942.798C525.689 943.011 523.946 943.223 522.15 943.442C497.75 946.202 473.345 947.345 448.799 947.333C447.538 947.334 446.277 947.335 444.977 947.337C423.786 947.334 402.833 946.116 381.746 943.991C373.461 943.173 365.36 943 357.039 943.156C357.039 941.896 357.039 940.636 357.039 939.338C355.116 939.453 353.194 939.569 351.214 939.688C338.166 939.663 325.464 936.468 312.769 933.73C311.39 933.435 310.01 933.141 308.589 932.837C227.228 915.335 107.41 882.813 49.6606 819.06C47.7514 814.525 47.7514 814.525 47.7514 809.514C54.4381 801.362 59.7733 798.576 69.9457 796.269C88.387 791.436 106.131 784.416 116.482 767.512C121.213 756.609 121.212 746.455 118.391 735.056C114.28 725.439 108.621 716.755 103.095 707.902C40.4992 606.956 23.0847 487.089 46.7819 371.424C48.5027 362.834 50.0286 354.207 51.5698 345.583C52.8299 345.583 54.0899 345.583 55.3882 345.583C55.5629 343.769 55.7376 341.955 55.9177 340.087C57.2786 330.655 60.6603 322.092 64.0988 313.246C64.7807 311.48 65.4625 309.714 66.1651 307.894C72.4492 291.92 79.7202 276.687 87.8442 261.579C88.4955 260.343 89.1467 259.107 89.8177 257.833C109.249 221.07 134.031 187.184 164.211 158.483C165.708 156.987 167.204 155.491 168.746 153.949C170.4 152.295 172.053 150.641 173.757 148.937C174.902 147.727 176.046 146.516 177.225 145.268C219.387 101.476 281.439 63.1505 339.856 45.8417C341.116 45.8417 342.376 45.8417 343.674 45.8417C344.304 44.5817 344.934 43.3216 345.583 42.0234C350.442 40.5738 355.207 39.3307 360.141 38.205C362.831 37.5708 365.521 36.9345 368.21 36.2958C369.535 35.9857 370.86 35.6756 372.224 35.3562C375.957 34.4296 379.648 33.3378 383.335 32.2388C389.495 30.5683 389.495 30.5683 397.131 30.5683C397.761 29.3082 398.391 28.0482 399.041 26.7499C403.696 25.8992 408.183 25.3011 412.882 24.8407C414.332 24.6885 415.782 24.5362 417.276 24.3793C420.406 24.0539 423.538 23.7363 426.67 23.4256C431.373 22.9443 436.065 22.4005 440.759 21.8427C511.159 13.8258 580.043 22.1861 647.234 43.9325ZM374.221 354.294C342.286 386.279 326.191 428.491 325.656 473.259C325.855 520.826 344.629 562.226 378.04 595.685C379.295 596.963 380.55 598.24 381.843 599.556C414.156 630.135 460.769 641.717 504.045 641.506C526.859 640.51 553.263 636.663 572.776 624.323C574.469 623.851 576.162 623.378 577.907 622.891C595.158 616.382 609.349 602.605 622.415 589.958C623.872 588.55 625.328 587.143 626.83 585.692C656.303 555.196 669.226 514.565 670.741 472.782C669.641 426.519 650.661 386.955 619.267 353.57C615.333 348.968 615.333 348.968 610.959 349.401C610.959 348.141 610.959 346.881 610.959 345.583C607.049 342.367 603.161 339.419 599.027 336.514C597.809 335.657 596.59 334.801 595.335 333.918C524.467 285.043 435.346 295.363 374.221 354.294Z" fill="#FEFEFE"/>
<path d="M418.133 21.0225C421.283 21.0225 424.433 21.0225 427.679 21.0225C427.679 21.6525 427.679 22.2825 427.679 22.9316C424.529 22.9316 421.378 22.9316 418.133 22.9316C418.133 22.3016 418.133 21.6716 418.133 21.0225Z" fill="#E6E7E8"/>
<path d="M179.484 893.518C182.32 895.408 182.32 895.408 185.212 897.336C183.322 897.336 181.432 897.336 179.484 897.336C179.484 896.076 179.484 894.816 179.484 893.518Z" fill="#E0E2E3"/>
<path d="M313.129 935.52C318.856 937.429 318.856 937.429 318.856 937.429L313.129 935.52Z" fill="#E7E9E9"/>
<path d="M112.664 765.603C114.554 766.548 114.554 766.548 116.482 767.512C114.592 768.457 114.592 768.457 112.664 769.421C112.664 768.161 112.664 766.901 112.664 765.603Z" fill="#F5F7F7"/>
<path d="M55.3887 612.868C56.6487 614.128 57.9088 615.388 59.207 616.687C57.947 616.687 56.6869 616.687 55.3887 616.687C55.3887 615.426 55.3887 614.166 55.3887 612.868Z" fill="#E9EBEB"/>
<path d="M717.875 72.5703C719.135 72.5703 720.395 72.5703 721.693 72.5703C721.063 73.8304 720.433 75.0904 719.784 76.3887C719.154 75.1286 718.524 73.8686 717.875 72.5703Z" fill="#E6E8E8"/>
<path d="M444.861 948.884C448.68 950.793 448.68 950.793 448.68 950.793L444.861 948.884Z" fill="#E7E7E8"/>
<path d="M347.492 941.247C351.311 943.156 351.311 943.156 351.311 943.156L347.492 941.247Z" fill="#E8E9E9"/>
<path d="M273.035 925.974C276.854 927.883 276.854 927.883 276.854 927.883L273.035 925.974Z" fill="#E4E6E7"/>
<path d="M725.512 876.335C729.33 878.244 729.33 878.244 729.33 878.244L725.512 876.335Z" fill="#E6E7E8"/>
<path d="M410.496 328.4C414.314 330.31 414.314 330.31 414.314 330.31L410.496 328.4Z" fill="#F8FAFB"/>
<path d="M546.047 313.127C549.865 315.036 549.865 315.036 549.865 315.036L546.047 313.127Z" fill="#F8FAFB"/>
<path d="M885.883 225.305C889.701 227.214 889.701 227.214 889.701 227.214L885.883 225.305Z" fill="#E5E5E6"/>
<path d="M811.424 137.482C815.242 139.392 815.242 139.392 815.242 139.392L811.424 137.482Z" fill="#E4E6E5"/>
<path d="M597.596 26.75C601.414 28.6592 601.414 28.6592 601.414 28.6592L597.596 26.75Z" fill="#E6E9E7"/>
<path d="M389.496 26.75C393.314 28.6592 393.314 28.6592 393.314 28.6592L389.496 26.75Z" fill="#E9E9EA"/>
</g>
<defs>
<clipPath id="clip0_115_30">
<rect width="960" height="960" fill="white"/>
</clipPath>
</defs>
</svg>
